<svg xmlns="http://www.w3.org/2000/svg" width="28.53" height="28" viewBox="0 0 28.53 28">
  <metadata><?xpacket begin="﻿" id="W5M0MpCehiHzreSzNTczkc9d"?>
<x:xmpmeta xmlns:x="adobe:ns:meta/" x:xmptk="Adobe XMP Core 5.6-c142 79.160924, 2017/07/13-01:06:39        ">
   <rdf:RDF xmlns:rdf="http://www.w3.org/1999/02/22-rdf-syntax-ns#">
      <rdf:Description rdf:about=""/>
   </rdf:RDF>
</x:xmpmeta>
                                                                                                    
                                                                                                    
                                                                                                    
                                                                                                    
                                                                                                    
                                                                                                    
                                                                                                    
                                                                                                    
                                                                                                    
                                                                                                    
                                                                                                    
                                                                                                    
                                                                                                    
                                                                                                    
                                                                                                    
                                                                                                    
                                                                                                    
                                                                                                    
                                                                                                    
                                                                                                    
                           
<?xpacket end="w"?></metadata>
<defs>
    <style>
      .cls-1 {
        fill: #fff;
        fill-rule: evenodd;
      }
    </style>
  </defs>
  <path id="github" class="cls-1" d="M1111.5,15059.1a14.375,14.375,0,0,0-5.19-5.2,14.441,14.441,0,0,0-14.32,0,14.222,14.222,0,0,0-5.19,5.2,14.559,14.559,0,0,0,.8,15.7,14.268,14.268,0,0,0,7.03,5.2,0.873,0.873,0,0,0,.75-0.2,0.582,0.582,0,0,0,.24-0.5c0-.1,0-0.4-0.01-1-0.01-.7-0.01-1.2-0.01-1.7l-0.43.1a3.513,3.513,0,0,1-1.03,0,5.79,5.79,0,0,1-1.29-.1,2.855,2.855,0,0,1-1.24-.5,2.382,2.382,0,0,1-.82-1.2l-0.19-.4a6.229,6.229,0,0,0-.58-1,2.532,2.532,0,0,0-.81-0.7l-0.13-.1a0.375,0.375,0,0,1-.24-0.2,1.143,1.143,0,0,1-.17-0.3c-0.04-.1,0-0.1.09-0.2a3.3,3.3,0,0,1,.54-0.1l0.37,0.1a2.387,2.387,0,0,1,.92.4,3.561,3.561,0,0,1,.9,1,3.829,3.829,0,0,0,1.04,1.2,2.838,2.838,0,0,0,1.21.4,3.442,3.442,0,0,0,1.06-.1q0.45-.15.84-0.3a2.906,2.906,0,0,1,.91-1.9,10.032,10.032,0,0,1-1.91-.4,4.486,4.486,0,0,1-1.74-.7,4.428,4.428,0,0,1-1.5-1.2,6.428,6.428,0,0,1-.97-2,8.945,8.945,0,0,1-.38-2.8,5.709,5.709,0,0,1,1.46-3.9,5.085,5.085,0,0,1,.13-3.8,2.645,2.645,0,0,1,1.6.3,14.355,14.355,0,0,1,1.55.7c0.33,0.2.59,0.4,0.79,0.5a12.959,12.959,0,0,1,7.13,0l0.71-.4a14.806,14.806,0,0,1,1.71-.9,2.95,2.95,0,0,1,1.5-.2,4.955,4.955,0,0,1,.15,3.8,5.671,5.671,0,0,1,1.47,3.9,9.248,9.248,0,0,1-.38,2.8,6.227,6.227,0,0,1-.99,2,6.491,6.491,0,0,1-3.25,1.9,9.761,9.761,0,0,1-1.9.4,3.161,3.161,0,0,1,.97,2.6v4a0.574,0.574,0,0,0,.23.5,0.829,0.829,0,0,0,.73.2,14.224,14.224,0,0,0,7.03-5.2,14,14,0,0,0,2.72-8.5A14.155,14.155,0,0,0,1111.5,15059.1Z" transform="translate(-1084.88 -15052)"/>
</svg>
