<svg xmlns="http://www.w3.org/2000/svg" width="29.22" height="28" viewBox="0 0 29.22 28">
  <metadata><?xpacket begin="﻿" id="W5M0MpCehiHzreSzNTczkc9d"?>
<x:xmpmeta xmlns:x="adobe:ns:meta/" x:xmptk="Adobe XMP Core 5.6-c142 79.160924, 2017/07/13-01:06:39        ">
   <rdf:RDF xmlns:rdf="http://www.w3.org/1999/02/22-rdf-syntax-ns#">
      <rdf:Description rdf:about=""/>
   </rdf:RDF>
</x:xmpmeta>
                                                                                                    
                                                                                                    
                                                                                                    
                                                                                                    
                                                                                                    
                                                                                                    
                                                                                                    
                                                                                                    
                                                                                                    
                                                                                                    
                                                                                                    
                                                                                                    
                                                                                                    
                                                                                                    
                                                                                                    
                                                                                                    
                                                                                                    
                                                                                                    
                                                                                                    
                                                                                                    
                           
<?xpacket end="w"?></metadata>
<defs>
    <style>
      .cls-1 {
        fill: #fff;
        fill-rule: evenodd;
      }
    </style>
  </defs>
  <path id="In" class="cls-1" d="M1247,15069.2v10.8h-6.26v-10.1c0-2.5-.91-4.3-3.18-4.3a3.463,3.463,0,0,0-3.21,2.3,4.225,4.225,0,0,0-.21,1.5v10.6h-6.26s0.08-17.1,0-18.9h6.26v2.7h0a6.181,6.181,0,0,1,5.65-3.1C1243.91,15060.7,1247,15063.4,1247,15069.2Zm-25.68-17.2a3.271,3.271,0,0,0-3.54,3.3,3.205,3.205,0,0,0,3.46,3.2h0.04a3.234,3.234,0,0,0,3.55-3.2A3.268,3.268,0,0,0,1221.32,15052Zm-3.17,28h6.26v-18.9h-6.26v18.9Z" transform="translate(-1217.78 -15052)"/>
</svg>
