<svg xmlns="http://www.w3.org/2000/svg" width="29.219" height="24.5" viewBox="0 0 29.219 24.5">
  <metadata><?xpacket begin="﻿" id="W5M0MpCehiHzreSzNTczkc9d"?>
<x:xmpmeta xmlns:x="adobe:ns:meta/" x:xmptk="Adobe XMP Core 5.6-c142 79.160924, 2017/07/13-01:06:39        ">
   <rdf:RDF xmlns:rdf="http://www.w3.org/1999/02/22-rdf-syntax-ns#">
      <rdf:Description rdf:about=""/>
   </rdf:RDF>
</x:xmpmeta>
                                                                                                    
                                                                                                    
                                                                                                    
                                                                                                    
                                                                                                    
                                                                                                    
                                                                                                    
                                                                                                    
                                                                                                    
                                                                                                    
                                                                                                    
                                                                                                    
                                                                                                    
                                                                                                    
                                                                                                    
                                                                                                    
                                                                                                    
                                                                                                    
                                                                                                    
                                                                                                    
                           
<?xpacket end="w"?></metadata>
<defs>
    <style>
      .cls-1 {
        fill: #fff;
        fill-rule: evenodd;
      }
    </style>
  </defs>
  <path id="twit" class="cls-1" d="M980.408,15053.8a10.615,10.615,0,0,1-3.809,1.6,5.61,5.61,0,0,0-4.375-2,6.116,6.116,0,0,0-6,6.2,6.607,6.607,0,0,0,.155,1.4,16.84,16.84,0,0,1-12.356-6.5,6.327,6.327,0,0,0-.811,3.1,6.25,6.25,0,0,0,2.667,5.2,5.146,5.146,0,0,1-2.715-.8v0.1a6.207,6.207,0,0,0,4.808,6.1,8.071,8.071,0,0,1-1.58.2c-0.387,0-.761-0.1-1.128-0.1a6.172,6.172,0,0,0,5.6,4.3,12.1,12.1,0,0,1-7.444,2.6,6.819,6.819,0,0,1-1.431-.1,16.258,16.258,0,0,0,9.19,2.8c11.027,0,17.057-9.4,17.057-17.6l-0.02-.8a13.508,13.508,0,0,0,3-3.2,13.173,13.173,0,0,1-3.442,1A6.283,6.283,0,0,0,980.408,15053.8Z" transform="translate(-952 -15053.4)"/>
</svg>
