<svg xmlns="http://www.w3.org/2000/svg" width="29.94" height="28" viewBox="0 0 29.94 28">
  <metadata><?xpacket begin="﻿" id="W5M0MpCehiHzreSzNTczkc9d"?>
<x:xmpmeta xmlns:x="adobe:ns:meta/" x:xmptk="Adobe XMP Core 5.6-c142 79.160924, 2017/07/13-01:06:39        ">
   <rdf:RDF xmlns:rdf="http://www.w3.org/1999/02/22-rdf-syntax-ns#">
      <rdf:Description rdf:about=""/>
   </rdf:RDF>
</x:xmpmeta>
                                                                                                    
                                                                                                    
                                                                                                    
                                                                                                    
                                                                                                    
                                                                                                    
                                                                                                    
                                                                                                    
                                                                                                    
                                                                                                    
                                                                                                    
                                                                                                    
                                                                                                    
                                                                                                    
                                                                                                    
                                                                                                    
                                                                                                    
                                                                                                    
                                                                                                    
                                                                                                    
                           
<?xpacket end="w"?></metadata>
<defs>
    <style>
      .cls-1 {
        fill: #fff;
        fill-rule: evenodd;
      }
    </style>
  </defs>
  <path id="bitcoin" class="cls-1" d="M1170.22,15062.2h-0.77v-1.7h1.7a1.648,1.648,0,0,1,.39.3,0.963,0.963,0,0,1,0,1,1.854,1.854,0,0,1-.44.3A2.09,2.09,0,0,1,1170.22,15062.2Zm1.02,1.1c-0.2,0-.49-0.1-0.89-0.1h-0.9v1.6a1.9,1.9,0,0,0,.03.4c0.01,0,.04,0,0.08.1h0.82a1.661,1.661,0,0,0,.74-0.1,3.5,3.5,0,0,0,.49-0.3,1.121,1.121,0,0,0,.21-0.7,0.746,0.746,0,0,0-.15-0.5A0.84,0.84,0,0,0,1171.24,15063.3Zm7.36-.4a8.337,8.337,0,1,1-8.34-8.5A8.415,8.415,0,0,1,1178.6,15062.9Zm-4.97,1.5a2.128,2.128,0,0,0-.22-0.9,3.394,3.394,0,0,0-.6-0.6,1.461,1.461,0,0,0-.75-0.2,4.108,4.108,0,0,0,.74-0.4,2.734,2.734,0,0,0,.42-0.6,1.452,1.452,0,0,0,.15-0.7,1.663,1.663,0,0,0-.28-0.9,3.253,3.253,0,0,0-.8-0.6c-0.13,0-.29-0.1-0.46-0.1v-1.3h-1.19v1.2h-0.76v-1.2h-1.18v1.2h-1.8v1h0.65a0.811,0.811,0,0,1,.14.2,1.18,1.18,0,0,1,.04.4v4a1.751,1.751,0,0,1-.04.4,0.563,0.563,0,0,1-.14.1h-0.65v1h1.8v1.2h1.18v-1.2h0.76v1.2h1.19v-1.3c0.19,0,.37-0.1.52-0.1a1.9,1.9,0,0,0,.94-0.8A1.591,1.591,0,0,0,1173.63,15064.4Zm7.27-1.5a10.734,10.734,0,0,1-9.19,10.7l-7.57,6.3a0.259,0.259,0,0,1-.25.1,0.235,0.235,0,0,1-.23-0.1,0.363,0.363,0,0,1-.16-0.4l2.26-6.8a10.3,10.3,0,0,1-1.66-1,7.138,7.138,0,0,1-1.36.8l-1.78,6.1-2.58-5.5a8.646,8.646,0,0,1,1.06-17.2,6.338,6.338,0,0,1,2.38.4,10.567,10.567,0,0,1,8.44-4.3A10.789,10.789,0,0,1,1180.9,15062.9Zm-0.81,0a9.826,9.826,0,1,0-13.67,9.2,0.41,0.41,0,0,1,.22.5l-1.92,5.8,6.56-5.5a2.092,2.092,0,0,1,.21-0.1A9.94,9.94,0,0,0,1180.09,15062.9Z" transform="translate(-1150.97 -15052)"/>
</svg>
