<svg xmlns="http://www.w3.org/2000/svg" width="27.125" height="23.8" viewBox="0 0 27.125 23.8">
  <metadata><?xpacket begin="﻿" id="W5M0MpCehiHzreSzNTczkc9d"?>
<x:xmpmeta xmlns:x="adobe:ns:meta/" x:xmptk="Adobe XMP Core 5.6-c142 79.160924, 2017/07/13-01:06:39        ">
   <rdf:RDF xmlns:rdf="http://www.w3.org/1999/02/22-rdf-syntax-ns#">
      <rdf:Description rdf:about=""/>
   </rdf:RDF>
</x:xmpmeta>
                                                                                                    
                                                                                                    
                                                                                                    
                                                                                                    
                                                                                                    
                                                                                                    
                                                                                                    
                                                                                                    
                                                                                                    
                                                                                                    
                                                                                                    
                                                                                                    
                                                                                                    
                                                                                                    
                                                                                                    
                                                                                                    
                                                                                                    
                                                                                                    
                                                                                                    
                                                                                                    
                           
<?xpacket end="w"?></metadata>
<defs>
    <style>
      .cls-1 {
        fill: #fff;
        fill-rule: evenodd;
      }
    </style>
  </defs>
  <path id="tg" class="cls-1" d="M820.26,15065.5l6.256,2.4,2.421,7.8a0.765,0.765,0,0,0,1.17.4l3.487-2.9a1.006,1.006,0,0,1,1.268,0l6.289,4.6a0.773,0.773,0,0,0,1.155-.5l4.608-22.3a0.768,0.768,0,0,0-.987-0.9l-25.674,10A0.752,0.752,0,0,0,820.26,15065.5Zm8.287,1.1,12.226-7.6a0.244,0.244,0,0,1,.257.4l-10.09,9.4a2.086,2.086,0,0,0-.648,1.3l-0.344,2.5a0.317,0.317,0,0,1-.617.1l-1.322-4.7A1.276,1.276,0,0,1,828.547,15066.6Z" transform="translate(-819.781 -15054.1)"/>
</svg>
