<svg xmlns="http://www.w3.org/2000/svg" width="27.813" height="19.6" viewBox="0 0 27.813 19.6">
  <metadata><?xpacket begin="﻿" id="W5M0MpCehiHzreSzNTczkc9d"?>
<x:xmpmeta xmlns:x="adobe:ns:meta/" x:xmptk="Adobe XMP Core 5.6-c142 79.160924, 2017/07/13-01:06:39        ">
   <rdf:RDF xmlns:rdf="http://www.w3.org/1999/02/22-rdf-syntax-ns#">
      <rdf:Description rdf:about=""/>
   </rdf:RDF>
</x:xmpmeta>
                                                                                                    
                                                                                                    
                                                                                                    
                                                                                                    
                                                                                                    
                                                                                                    
                                                                                                    
                                                                                                    
                                                                                                    
                                                                                                    
                                                                                                    
                                                                                                    
                                                                                                    
                                                                                                    
                                                                                                    
                                                                                                    
                                                                                                    
                                                                                                    
                                                                                                    
                                                                                                    
                           
<?xpacket end="w"?></metadata>
<defs>
    <style>
      .cls-1 {
        fill: #fff;
        fill-rule: evenodd;
      }
    </style>
  </defs>
  <path id="ytb" class="cls-1" d="M780.346,15059.3a3.381,3.381,0,0,0-3.008-2.7,135.934,135.934,0,0,0-20.841,0,3.379,3.379,0,0,0-3.006,2.7,31.191,31.191,0,0,0-.491,6.7,29.821,29.821,0,0,0,.485,6.6,3.607,3.607,0,0,0,3.007,2.8,135.92,135.92,0,0,0,20.84,0,3.61,3.61,0,0,0,3.008-2.8,29.821,29.821,0,0,0,.487-6.6A31.181,31.181,0,0,0,780.346,15059.3Zm-17.023,11.1v-9.3c2.949,1.5,5.879,3.1,8.846,4.6C769.21,15067.3,766.279,15068.8,763.323,15070.4Z" transform="translate(-753 -15056.2)"/>
</svg>
